<svg width="27" height="27" viewBox="0 0 27 27" fill="none" xmlns="http://www.w3.org/2000/svg">
<rect width="27" height="27" rx="6" fill="#F3F6F9"/>
<path d="M18.5169 9.10716C19.0943 9.68456 19.1038 10.6178 18.5382 11.2068L14.1939 15.7308C13.9186 16.0175 13.5408 16.1832 13.1434 16.1915L11.3206 16.2298L11.3592 14.3917C11.3673 14.0034 11.5258 13.6333 11.8012 13.3595L16.2403 8.94579C16.8266 8.36287 17.774 8.36422 18.3586 8.94882L18.5169 9.10716Z" fill="#3699FF"/>
<path opacity="0.3" d="M14.0063 7.875C14.3169 7.875 14.5688 8.12684 14.5688 8.4375C14.5688 8.74816 14.3169 9 14.0063 9H10.125C9.50368 9 9 9.50368 9 10.125V16.875C9 17.4963 9.50368 18 10.125 18H16.875C17.4963 18 18 17.4963 18 16.875V14.0625C18 13.7518 18.2518 13.5 18.5625 13.5C18.8732 13.5 19.125 13.7518 19.125 14.0625V16.875C19.125 18.1176 18.1176 19.125 16.875 19.125H10.125C8.88236 19.125 7.875 18.1176 7.875 16.875V10.125C7.875 8.88236 8.88236 7.875 10.125 7.875H14.0063Z" fill="#3699FF"/>
</svg>
