<svg width="16" height="18" viewBox="0 0 16 18" fill="none" xmlns="http://www.w3.org/2000/svg">
<path d="M6.75 6.60938V14.2031C6.75 14.4361 6.56111 14.625 6.32812 14.625H5.48438C5.25139 14.625 5.0625 14.4361 5.0625 14.2031V6.60938C5.0625 6.37639 5.25139 6.1875 5.48438 6.1875H6.32812C6.56111 6.1875 6.75 6.37639 6.75 6.60938ZM10.2656 6.1875H9.42188C9.18889 6.1875 9 6.37639 9 6.60938V14.2031C9 14.4361 9.18889 14.625 9.42188 14.625H10.2656C10.4986 14.625 10.6875 14.4361 10.6875 14.2031V6.60938C10.6875 6.37639 10.4986 6.1875 10.2656 6.1875ZM14.9062 2.8125C15.3722 2.8125 15.75 3.19025 15.75 3.65625V4.07812C15.75 4.31111 15.5611 4.5 15.3281 4.5H14.625V16.3125C14.625 17.2445 13.8695 18 12.9375 18H2.8125C1.88051 18 1.125 17.2445 1.125 16.3125V4.5H0.421875C0.188895 4.5 0 4.31111 0 4.07812V3.65625C0 3.19025 0.377754 2.8125 0.84375 2.8125H3.45976L4.65571 0.819281C4.80564 0.569402 5.01772 0.362606 5.2713 0.219032C5.52489 0.0754571 5.81133 -2.80356e-06 6.10274 0L9.6473 0C9.9387 -2.80356e-06 10.2251 0.0754571 10.4787 0.219032C10.7323 0.362606 10.9444 0.569402 11.0943 0.819281L12.2902 2.8125H14.9062ZM5.42774 2.8125H10.3223L9.70875 1.78991C9.69001 1.75868 9.6635 1.73283 9.6318 1.71488C9.6001 1.69693 9.5643 1.6875 9.52787 1.6875H6.2222C6.18577 1.6875 6.14997 1.69693 6.11827 1.71488C6.08657 1.73283 6.06006 1.75868 6.04132 1.78991L5.42774 2.8125ZM12.9375 4.5H2.8125V16.1016C2.8125 16.1575 2.83472 16.2112 2.87428 16.2507C2.91384 16.2903 2.96749 16.3125 3.02344 16.3125H12.7266C12.7825 16.3125 12.8362 16.2903 12.8757 16.2507C12.9153 16.2112 12.9375 16.1575 12.9375 16.1016V4.5Z" fill="#5D78FF"/>
</svg>
