<svg width="106" height="30" viewBox="0 0 106 30" fill="none" xmlns="http://www.w3.org/2000/svg">
<path d="M2.78859 18.6187V4.65865H10.7686V5.71865H3.98859V10.9987H10.3086V12.0587H3.98859V18.6187H2.78859ZM21.8439 18.6187L20.3239 14.2787H14.3839L12.8639 18.6187H11.6639L16.6039 4.65865H18.1439L23.1039 18.6187H21.8439ZM17.3839 5.79865H17.3039L14.6839 13.2387H20.0039L17.3839 5.79865ZM26.9239 18.6187H25.7239V4.65865H31.2039C32.4039 4.65865 33.3239 4.99865 33.9639 5.67865C34.6172 6.35865 34.9439 7.31199 34.9439 8.53865C34.9439 9.61865 34.6772 10.492 34.1439 11.1587C33.6239 11.8253 32.8639 12.2253 31.8639 12.3587L35.3039 18.6187H33.9639L30.6239 12.4387H26.9239V18.6187ZM31.2039 11.4187C32.0039 11.4187 32.6106 11.1987 33.0239 10.7587C33.4506 10.3053 33.6639 9.73199 33.6639 9.03865V8.07865C33.6639 7.39865 33.4506 6.83865 33.0239 6.39865C32.6106 5.94532 32.0039 5.71865 31.2039 5.71865H26.9239V11.4187H31.2039Z" fill="white"/>
<rect x="1.65137" y="25.9116" width="20.5184" height="3.472" fill="white"/>
<rect x="24.9053" y="25.9116" width="20.5184" height="3.472" fill="#DE442C"/>
<rect x="47.7041" y="25.9116" width="20.5184" height="3.472" fill="#FBAF43"/>
<rect x="70.75" y="25.9014" width="20.5184" height="3.472" fill="#007CCA"/>
</svg>
