<svg width="26" height="26" viewBox="0 0 26 26" fill="none" xmlns="http://www.w3.org/2000/svg">
<rect width="26" height="26" rx="6" fill="#F3F6F9"/>
<path d="M6 12.5C6 12.5 8.4375 8 12.5 8C16.5625 8 19 12.5 19 12.5C19 12.5 16.5625 17 12.5 17C8.4375 17 6 12.5 6 12.5ZM12.5 15.3636C13.2542 15.3636 13.9775 15.0619 14.5108 14.5249C15.0441 13.9879 15.3438 13.2595 15.3438 12.5C15.3438 11.7405 15.0441 11.0121 14.5108 10.4751C13.9775 9.93807 13.2542 9.63636 12.5 9.63636C11.7458 9.63636 11.0225 9.93807 10.4892 10.4751C9.95586 11.0121 9.65625 11.7405 9.65625 12.5C9.65625 13.2595 9.95586 13.9879 10.4892 14.5249C11.0225 15.0619 11.7458 15.3636 12.5 15.3636Z" fill="#3699FF"/>
</svg>
